# xmcd
# 
# Track frame offsets:
#     183
#     11310
#     23723
#     32928
#     44668
#     58750
#     77558
#     91733
#     110823
#     142145
#     160680
#     173363
#     184688
#     201543
#     213135
#     222120
#     236670
#     248590
# 
# Disc length: 3534
# 
# Revision: 1
# Processed by: cddbd v1.5.2PL0 Copyright (c) Steve Scherf et al.
# Submitted via: fre:ac v1.0.17
# 
DISCID=f00dcc12
DTITLE=Blues Sampler - Sequel's Blues on a fuse
DYEAR=0
DGENRE=Blues
TTITLE0=Cyril Davis - Chicago Calling
TTITLE1=Big Bill Broonzy - it feels so good
TTITLE2=Sonny Terry - I love you Baby
TTITLE3=James Cotton - Rocket 88
TTITLE4=Freddie King - Lowdown in Lodi
TTITLE5=Alexis Korner - Robert Jahnson
TTITLE6=Jimmy Rogers - That's all right
TTITLE7=Otis Grand - Things are getting harder to do
TTITLE8=B.B. King - Outside Help
TTITLE9=Little Milton - Angel of Mercy
TTITLE10=Louisiana Red - Red's Dream
TTITLE11=Strollin' with Bones
TTITLE12=Son House - Death Letter Blues
TTITLE13=Arthur Crudup - Boogie in the Morning
TTITLE14=Big Joe Williams - Baby please don't go
TTITLE15=Juke Boy Bonner - Mojo Hand
TTITLE16=Shakey Jake - Save your Money Baby
TTITLE17=Sunnyland Slim - Dust my Broom
EXTD=
EXTT0=
EXTT1=
EXTT2=
EXTT3=
EXTT4=
EXTT5=
EXTT6=
EXTT7=
EXTT8=
EXTT9=
EXTT10=
EXTT11=
EXTT12=
EXTT13=
EXTT14=
EXTT15=
EXTT16=
EXTT17=
PLAYORDER=
